<svg id="visual" viewBox="0 0 900 600" width="900" height="600" xmlns="http://www.w3.org/2000/svg" xmlns:xlink="http://www.w3.org/1999/xlink" version="1.1"><rect x="0" y="0" width="900" height="600" fill="#202731"></rect><defs><linearGradient id="grad1_0" x1="33.3%" y1="0%" x2="100%" y2="100%"><stop offset="20%" stop-color="#fbae3c" stop-opacity="1"></stop><stop offset="80%" stop-color="#fbae3c" stop-opacity="1"></stop></linearGradient></defs><defs><linearGradient id="grad1_1" x1="33.3%" y1="0%" x2="100%" y2="100%"><stop offset="20%" stop-color="#fbae3c" stop-opacity="1"></stop><stop offset="80%" stop-color="#d5636e" stop-opacity="1"></stop></linearGradient></defs><defs><linearGradient id="grad1_2" x1="33.3%" y1="0%" x2="100%" y2="100%"><stop offset="20%" stop-color="#6c486f" stop-opacity="1"></stop><stop offset="80%" stop-color="#d5636e" stop-opacity="1"></stop></linearGradient></defs><defs><linearGradient id="grad1_3" x1="33.3%" y1="0%" x2="100%" y2="100%"><stop offset="20%" stop-color="#6c486f" stop-opacity="1"></stop><stop offset="80%" stop-color="#202731" stop-opacity="1"></stop></linearGradient></defs><defs><linearGradient id="grad2_0" x1="0%" y1="0%" x2="66.7%" y2="100%"><stop offset="20%" stop-color="#fbae3c" stop-opacity="1"></stop><stop offset="80%" stop-color="#fbae3c" stop-opacity="1"></stop></linearGradient></defs><defs><linearGradient id="grad2_1" x1="0%" y1="0%" x2="66.7%" y2="100%"><stop offset="20%" stop-color="#d5636e" stop-opacity="1"></stop><stop offset="80%" stop-color="#fbae3c" stop-opacity="1"></stop></linearGradient></defs><defs><linearGradient id="grad2_2" x1="0%" y1="0%" x2="66.7%" y2="100%"><stop offset="20%" stop-color="#d5636e" stop-opacity="1"></stop><stop offset="80%" stop-color="#6c486f" stop-opacity="1"></stop></linearGradient></defs><defs><linearGradient id="grad2_3" x1="0%" y1="0%" x2="66.7%" y2="100%"><stop offset="20%" stop-color="#202731" stop-opacity="1"></stop><stop offset="80%" stop-color="#6c486f" stop-opacity="1"></stop></linearGradient></defs><g transform="translate(900, 0)"><path d="M0 459.7C-69.6 461.6 -139.1 463.5 -175.3 423.1C-211.4 382.7 -214.2 300 -257.4 257.4C-300.6 214.7 -384.3 212.1 -424.7 175.9C-465.2 139.7 -462.4 69.9 -459.7 0L0 0Z" fill="#3c3a55"></path><path d="M0 344.8C-52.2 346.2 -104.3 347.6 -131.5 317.4C-158.6 287.1 -160.6 225 -193 193C-225.4 161.1 -288.2 159.1 -318.5 131.9C-348.9 104.8 -346.8 52.4 -344.8 0L0 0Z" fill="#a35378"></path><path d="M0 229.9C-34.8 230.8 -69.6 231.8 -87.6 211.6C-105.7 191.4 -107.1 150 -128.7 128.7C-150.3 107.4 -192.1 106.1 -212.4 88C-232.6 69.9 -231.2 34.9 -229.9 0L0 0Z" fill="#f48257"></path><path d="M0 114.9C-17.4 115.4 -34.8 115.9 -43.8 105.8C-52.9 95.7 -53.5 75 -64.3 64.3C-75.1 53.7 -96.1 53 -106.2 44C-116.3 34.9 -115.6 17.5 -114.9 0L0 0Z" fill="#fbae3c"></path></g><g transform="translate(0, 600)"><path d="M0 -459.7C42.9 -407.1 85.8 -354.6 138.5 -334.4C191.3 -314.3 253.8 -326.7 306.2 -306.2C358.6 -285.7 400.8 -232.4 424.7 -175.9C448.6 -119.4 454.2 -59.7 459.7 0L0 0Z" fill="#3c3a55"></path><path d="M0 -344.8C32.2 -305.4 64.4 -265.9 103.9 -250.8C143.4 -235.7 190.3 -245 229.6 -229.6C268.9 -214.3 300.6 -174.3 318.5 -131.9C336.5 -89.6 340.6 -44.8 344.8 0L0 0Z" fill="#a35378"></path><path d="M0 -229.9C21.5 -203.6 42.9 -177.3 69.3 -167.2C95.6 -157.2 126.9 -163.3 153.1 -153.1C179.3 -142.9 200.4 -116.2 212.4 -88C224.3 -59.7 227.1 -29.9 229.9 0L0 0Z" fill="#f48257"></path><path d="M0 -114.9C10.7 -101.8 21.5 -88.6 34.6 -83.6C47.8 -78.6 63.4 -81.7 76.5 -76.5C89.6 -71.4 100.2 -58.1 106.2 -44C112.2 -29.9 113.5 -14.9 114.9 0L0 0Z" fill="#fbae3c"></path></g></svg>