<svg id="visual" viewBox="0 0 900 600" width="900" height="600" xmlns="http://www.w3.org/2000/svg" xmlns:xlink="http://www.w3.org/1999/xlink" version="1.1"><rect x="0" y="0" width="900" height="600" fill="#202731"></rect><defs><linearGradient id="grad1_0" x1="33.3%" y1="100%" x2="100%" y2="0%"><stop offset="20%" stop-color="#fbae3c" stop-opacity="1"></stop><stop offset="80%" stop-color="#fbae3c" stop-opacity="1"></stop></linearGradient></defs><defs><linearGradient id="grad1_1" x1="33.3%" y1="100%" x2="100%" y2="0%"><stop offset="20%" stop-color="#fbae3c" stop-opacity="1"></stop><stop offset="80%" stop-color="#d5636e" stop-opacity="1"></stop></linearGradient></defs><defs><linearGradient id="grad1_2" x1="33.3%" y1="100%" x2="100%" y2="0%"><stop offset="20%" stop-color="#6c486f" stop-opacity="1"></stop><stop offset="80%" stop-color="#d5636e" stop-opacity="1"></stop></linearGradient></defs><defs><linearGradient id="grad1_3" x1="33.3%" y1="100%" x2="100%" y2="0%"><stop offset="20%" stop-color="#6c486f" stop-opacity="1"></stop><stop offset="80%" stop-color="#202731" stop-opacity="1"></stop></linearGradient></defs><defs><linearGradient id="grad2_0" x1="0%" y1="100%" x2="66.7%" y2="0%"><stop offset="20%" stop-color="#fbae3c" stop-opacity="1"></stop><stop offset="80%" stop-color="#fbae3c" stop-opacity="1"></stop></linearGradient></defs><defs><linearGradient id="grad2_1" x1="0%" y1="100%" x2="66.7%" y2="0%"><stop offset="20%" stop-color="#d5636e" stop-opacity="1"></stop><stop offset="80%" stop-color="#fbae3c" stop-opacity="1"></stop></linearGradient></defs><defs><linearGradient id="grad2_2" x1="0%" y1="100%" x2="66.7%" y2="0%"><stop offset="20%" stop-color="#d5636e" stop-opacity="1"></stop><stop offset="80%" stop-color="#6c486f" stop-opacity="1"></stop></linearGradient></defs><defs><linearGradient id="grad2_3" x1="0%" y1="100%" x2="66.7%" y2="0%"><stop offset="20%" stop-color="#202731" stop-opacity="1"></stop><stop offset="80%" stop-color="#6c486f" stop-opacity="1"></stop></linearGradient></defs><g transform="translate(900, 600)"><path d="M-459.7 0C-461.6 -69.6 -463.5 -139.1 -423.1 -175.3C-382.7 -211.4 -300 -214.2 -257.4 -257.4C-214.7 -300.6 -212.1 -384.3 -175.9 -424.7C-139.7 -465.2 -69.9 -462.4 0 -459.7L0 0Z" fill="#3c3a55"></path><path d="M-344.8 0C-346.2 -52.2 -347.6 -104.3 -317.4 -131.5C-287.1 -158.6 -225 -160.6 -193 -193C-161.1 -225.4 -159.1 -288.2 -131.9 -318.5C-104.8 -348.9 -52.4 -346.8 0 -344.8L0 0Z" fill="#a35378"></path><path d="M-229.9 0C-230.8 -34.8 -231.8 -69.6 -211.6 -87.6C-191.4 -105.7 -150 -107.1 -128.7 -128.7C-107.4 -150.3 -106.1 -192.1 -88 -212.4C-69.9 -232.6 -34.9 -231.2 0 -229.9L0 0Z" fill="#f48257"></path><path d="M-114.9 0C-115.4 -17.4 -115.9 -34.8 -105.8 -43.8C-95.7 -52.9 -75 -53.5 -64.3 -64.3C-53.7 -75.1 -53 -96.1 -44 -106.2C-34.9 -116.3 -17.5 -115.6 0 -114.9L0 0Z" fill="#fbae3c"></path></g><g transform="translate(0, 0)"><path d="M459.7 0C407.1 42.9 354.6 85.8 334.4 138.5C314.3 191.3 326.7 253.8 306.2 306.2C285.7 358.6 232.4 400.8 175.9 424.7C119.4 448.6 59.7 454.2 0 459.7L0 0Z" fill="#3c3a55"></path><path d="M344.8 0C305.4 32.2 265.9 64.4 250.8 103.9C235.7 143.4 245 190.3 229.6 229.6C214.3 268.9 174.3 300.6 131.9 318.5C89.6 336.5 44.8 340.6 0 344.8L0 0Z" fill="#a35378"></path><path d="M229.9 0C203.6 21.5 177.3 42.9 167.2 69.3C157.2 95.6 163.3 126.9 153.1 153.1C142.9 179.3 116.2 200.4 88 212.4C59.7 224.3 29.9 227.1 0 229.9L0 0Z" fill="#f48257"></path><path d="M114.9 0C101.8 10.7 88.6 21.5 83.6 34.6C78.6 47.8 81.7 63.4 76.5 76.5C71.4 89.6 58.1 100.2 44 106.2C29.9 112.2 14.9 113.5 0 114.9L0 0Z" fill="#fbae3c"></path></g></svg>